<mxfile host="app.diagrams.net" agent="Mozilla/5.0 (Windows NT 10.0; Win64; x64) AppleWebKit/537.36 (KHTML, like Gecko) Chrome/136.0.0.0 Safari/537.36" version="27.1.1">
  <diagram name="Page-1" id="D2wcr8pbmZ10XagXiJt4">
    <mxGraphModel dx="1042" dy="666" grid="1" gridSize="10" guides="1" tooltips="1" connect="1" arrows="1" fold="1" page="1" pageScale="1" pageWidth="850" pageHeight="1100" math="0" shadow="0">
      <root>
        <mxCell id="0" />
        <mxCell id="1" parent="0" />
        <mxCell id="SQ6MHOEV0jMsdUfmCM_1-31" value="" style="rounded=0;whiteSpace=wrap;html=1;dashed=1;strokeWidth=4;perimeterSpacing=1;strokeColor=#80FF00;" vertex="1" parent="1">
          <mxGeometry x="150" y="380" width="880" height="160" as="geometry" />
        </mxCell>
        <mxCell id="SQ6MHOEV0jMsdUfmCM_1-30" value="" style="rounded=0;whiteSpace=wrap;html=1;dashed=1;strokeWidth=4;perimeterSpacing=1;strokeColor=#7AC3FF;" vertex="1" parent="1">
          <mxGeometry x="150" y="120" width="880" height="170" as="geometry" />
        </mxCell>
        <mxCell id="SQ6MHOEV0jMsdUfmCM_1-1" value="&lt;b&gt;&lt;font style=&quot;font-size: 20px;&quot;&gt;Plain text&lt;/font&gt;&lt;/b&gt;" style="rounded=0;whiteSpace=wrap;html=1;" vertex="1" parent="1">
          <mxGeometry x="30" y="300" width="160" height="60" as="geometry" />
        </mxCell>
        <mxCell id="SQ6MHOEV0jMsdUfmCM_1-2" value="&lt;b&gt;&lt;font style=&quot;font-size: 15px; line-height: 100%;&quot;&gt;Tokenization&lt;/font&gt;&lt;/b&gt;&lt;div&gt;&lt;b&gt;&lt;font style=&quot;font-size: 15px; line-height: 100%;&quot;&gt;&lt;br&gt;&lt;/font&gt;&lt;/b&gt;&lt;/div&gt;" style="rounded=0;whiteSpace=wrap;html=1;fillColor=#E4F0FF;strokeColor=#36393d;perimeterSpacing=0;align=center;" vertex="1" parent="1">
          <mxGeometry x="180" y="170" width="120" height="110" as="geometry" />
        </mxCell>
        <mxCell id="SQ6MHOEV0jMsdUfmCM_1-3" value="&lt;b&gt;&lt;font style=&quot;font-size: 15px;&quot;&gt;Word Reversal&lt;/font&gt;&lt;/b&gt;" style="rounded=0;whiteSpace=wrap;html=1;fillColor=#E4F0FF;perimeterSpacing=0;" vertex="1" parent="1">
          <mxGeometry x="320" y="170" width="120" height="110" as="geometry" />
        </mxCell>
        <mxCell id="SQ6MHOEV0jMsdUfmCM_1-4" value="&lt;b&gt;&lt;font style=&quot;font-size: 15px;&quot;&gt;Rejoin Reverse Text&lt;/font&gt;&lt;/b&gt;" style="rounded=0;whiteSpace=wrap;html=1;fillColor=#E4F0FF;perimeterSpacing=0;" vertex="1" parent="1">
          <mxGeometry x="460" y="170" width="120" height="110" as="geometry" />
        </mxCell>
        <mxCell id="SQ6MHOEV0jMsdUfmCM_1-5" value="&lt;b&gt;&lt;font style=&quot;font-size: 15px;&quot;&gt;Ceaser Cipher&lt;/font&gt;&lt;/b&gt;&lt;div&gt;&lt;b&gt;&lt;font style=&quot;font-size: 15px;&quot;&gt;Encryption&amp;nbsp;&lt;/font&gt;&lt;/b&gt;&lt;div&gt;&lt;b&gt;&lt;font style=&quot;font-size: 15px;&quot;&gt;(ASCII based)&lt;/font&gt;&lt;/b&gt;&lt;/div&gt;&lt;/div&gt;" style="rounded=0;whiteSpace=wrap;html=1;fillColor=#E4F0FF;perimeterSpacing=0;" vertex="1" parent="1">
          <mxGeometry x="600" y="170" width="120" height="110" as="geometry" />
        </mxCell>
        <mxCell id="SQ6MHOEV0jMsdUfmCM_1-6" value="&lt;b&gt;&lt;font style=&quot;font-size: 15px;&quot;&gt;Append Key to Ciphertext&lt;/font&gt;&lt;/b&gt;" style="rounded=0;whiteSpace=wrap;html=1;fillColor=#E4F0FF;perimeterSpacing=0;" vertex="1" parent="1">
          <mxGeometry x="740" y="170" width="120" height="110" as="geometry" />
        </mxCell>
        <mxCell id="SQ6MHOEV0jMsdUfmCM_1-7" value="&lt;b&gt;&lt;font style=&quot;font-size: 15px;&quot;&gt;Huffman Compression&lt;/font&gt;&lt;/b&gt;" style="rounded=0;whiteSpace=wrap;html=1;fillColor=#E4F0FF;perimeterSpacing=0;" vertex="1" parent="1">
          <mxGeometry x="880" y="170" width="120" height="110" as="geometry" />
        </mxCell>
        <mxCell id="SQ6MHOEV0jMsdUfmCM_1-8" value="&lt;b&gt;&lt;font style=&quot;font-size: 19px;&quot;&gt;Compressed CipherText&lt;/font&gt;&lt;/b&gt;" style="rounded=0;whiteSpace=wrap;html=1;" vertex="1" parent="1">
          <mxGeometry x="990" y="300" width="160" height="60" as="geometry" />
        </mxCell>
        <mxCell id="SQ6MHOEV0jMsdUfmCM_1-9" value="&lt;b&gt;&lt;font style=&quot;font-size: 15px;&quot;&gt;Rejoin Reverse Text&lt;/font&gt;&lt;/b&gt;" style="rounded=0;whiteSpace=wrap;html=1;fillColor=#DFEBD0;strokeColor=#36393d;" vertex="1" parent="1">
          <mxGeometry x="180" y="390" width="120" height="90" as="geometry" />
        </mxCell>
        <mxCell id="SQ6MHOEV0jMsdUfmCM_1-10" value="&lt;b&gt;&lt;font style=&quot;font-size: 15px;&quot;&gt;Word Reversal&lt;/font&gt;&lt;/b&gt;" style="rounded=0;whiteSpace=wrap;html=1;fillColor=#DFEBD0;" vertex="1" parent="1">
          <mxGeometry x="320" y="390" width="120" height="90" as="geometry" />
        </mxCell>
        <mxCell id="SQ6MHOEV0jMsdUfmCM_1-11" value="&lt;b&gt;&lt;font style=&quot;font-size: 15px; line-height: 15px;&quot;&gt;Tokenization&lt;/font&gt;&lt;/b&gt;" style="rounded=0;whiteSpace=wrap;html=1;fillColor=#DFEBD0;" vertex="1" parent="1">
          <mxGeometry x="460" y="390" width="120" height="90" as="geometry" />
        </mxCell>
        <mxCell id="SQ6MHOEV0jMsdUfmCM_1-12" value="&lt;b&gt;&lt;font style=&quot;font-size: 15px;&quot;&gt;Ceaser Cipher Decryption&lt;/font&gt;&lt;/b&gt;&lt;div&gt;&lt;b&gt;&lt;font style=&quot;font-size: 15px;&quot;&gt;(ASCII based)&lt;/font&gt;&lt;/b&gt;&lt;/div&gt;" style="rounded=0;whiteSpace=wrap;html=1;fillColor=#DFEBD0;" vertex="1" parent="1">
          <mxGeometry x="600" y="390" width="120" height="90" as="geometry" />
        </mxCell>
        <mxCell id="SQ6MHOEV0jMsdUfmCM_1-13" value="&lt;b&gt;&lt;font style=&quot;font-size: 15px;&quot;&gt;Extract Key&lt;/font&gt;&lt;/b&gt;" style="rounded=0;whiteSpace=wrap;html=1;fillColor=#DFEBD0;" vertex="1" parent="1">
          <mxGeometry x="740" y="390" width="120" height="90" as="geometry" />
        </mxCell>
        <mxCell id="SQ6MHOEV0jMsdUfmCM_1-14" value="&lt;b&gt;&lt;font style=&quot;font-size: 15px;&quot;&gt;Huffman Decompression&lt;/font&gt;&lt;/b&gt;" style="rounded=0;whiteSpace=wrap;html=1;fillColor=#DFEBD0;" vertex="1" parent="1">
          <mxGeometry x="880" y="390" width="120" height="90" as="geometry" />
        </mxCell>
        <mxCell id="SQ6MHOEV0jMsdUfmCM_1-15" value="" style="endArrow=classic;html=1;rounded=0;exitX=0.5;exitY=0;exitDx=0;exitDy=0;entryX=0;entryY=0.5;entryDx=0;entryDy=0;" edge="1" parent="1" source="SQ6MHOEV0jMsdUfmCM_1-1" target="SQ6MHOEV0jMsdUfmCM_1-2">
          <mxGeometry width="50" height="50" relative="1" as="geometry">
            <mxPoint x="580" y="400" as="sourcePoint" />
            <mxPoint x="630" y="350" as="targetPoint" />
            <Array as="points">
              <mxPoint x="110" y="225" />
            </Array>
          </mxGeometry>
        </mxCell>
        <mxCell id="SQ6MHOEV0jMsdUfmCM_1-16" value="" style="endArrow=classic;html=1;rounded=0;exitX=1;exitY=0.5;exitDx=0;exitDy=0;entryX=0;entryY=0.5;entryDx=0;entryDy=0;" edge="1" parent="1" source="SQ6MHOEV0jMsdUfmCM_1-2" target="SQ6MHOEV0jMsdUfmCM_1-3">
          <mxGeometry width="50" height="50" relative="1" as="geometry">
            <mxPoint x="580" y="400" as="sourcePoint" />
            <mxPoint x="630" y="350" as="targetPoint" />
          </mxGeometry>
        </mxCell>
        <mxCell id="SQ6MHOEV0jMsdUfmCM_1-18" value="" style="endArrow=classic;html=1;rounded=0;exitX=1;exitY=0.5;exitDx=0;exitDy=0;entryX=0;entryY=0.5;entryDx=0;entryDy=0;" edge="1" parent="1" source="SQ6MHOEV0jMsdUfmCM_1-3" target="SQ6MHOEV0jMsdUfmCM_1-4">
          <mxGeometry width="50" height="50" relative="1" as="geometry">
            <mxPoint x="390" y="350" as="sourcePoint" />
            <mxPoint x="530" y="360" as="targetPoint" />
          </mxGeometry>
        </mxCell>
        <mxCell id="SQ6MHOEV0jMsdUfmCM_1-19" value="" style="endArrow=classic;html=1;rounded=0;exitX=1;exitY=0.5;exitDx=0;exitDy=0;entryX=0;entryY=0.5;entryDx=0;entryDy=0;" edge="1" parent="1" source="SQ6MHOEV0jMsdUfmCM_1-4" target="SQ6MHOEV0jMsdUfmCM_1-5">
          <mxGeometry width="50" height="50" relative="1" as="geometry">
            <mxPoint x="480" y="360" as="sourcePoint" />
            <mxPoint x="620" y="370" as="targetPoint" />
          </mxGeometry>
        </mxCell>
        <mxCell id="SQ6MHOEV0jMsdUfmCM_1-20" value="" style="endArrow=classic;html=1;rounded=0;exitX=1;exitY=0.5;exitDx=0;exitDy=0;entryX=0;entryY=0.5;entryDx=0;entryDy=0;" edge="1" parent="1" source="SQ6MHOEV0jMsdUfmCM_1-5" target="SQ6MHOEV0jMsdUfmCM_1-6">
          <mxGeometry width="50" height="50" relative="1" as="geometry">
            <mxPoint x="420" y="360" as="sourcePoint" />
            <mxPoint x="560" y="370" as="targetPoint" />
          </mxGeometry>
        </mxCell>
        <mxCell id="SQ6MHOEV0jMsdUfmCM_1-21" value="" style="endArrow=classic;html=1;rounded=0;exitX=1;exitY=0.5;exitDx=0;exitDy=0;entryX=0;entryY=0.5;entryDx=0;entryDy=0;" edge="1" parent="1" source="SQ6MHOEV0jMsdUfmCM_1-6" target="SQ6MHOEV0jMsdUfmCM_1-7">
          <mxGeometry width="50" height="50" relative="1" as="geometry">
            <mxPoint x="450" y="360" as="sourcePoint" />
            <mxPoint x="590" y="370" as="targetPoint" />
          </mxGeometry>
        </mxCell>
        <mxCell id="SQ6MHOEV0jMsdUfmCM_1-22" value="" style="endArrow=classic;html=1;rounded=0;exitX=1;exitY=0.5;exitDx=0;exitDy=0;entryX=0.5;entryY=0;entryDx=0;entryDy=0;" edge="1" parent="1" source="SQ6MHOEV0jMsdUfmCM_1-7" target="SQ6MHOEV0jMsdUfmCM_1-8">
          <mxGeometry width="50" height="50" relative="1" as="geometry">
            <mxPoint x="470" y="370" as="sourcePoint" />
            <mxPoint x="610" y="380" as="targetPoint" />
            <Array as="points">
              <mxPoint x="1070" y="225" />
            </Array>
          </mxGeometry>
        </mxCell>
        <mxCell id="SQ6MHOEV0jMsdUfmCM_1-23" value="" style="endArrow=classic;html=1;rounded=0;exitX=0.5;exitY=1;exitDx=0;exitDy=0;entryX=1;entryY=0.5;entryDx=0;entryDy=0;" edge="1" parent="1" source="SQ6MHOEV0jMsdUfmCM_1-8" target="SQ6MHOEV0jMsdUfmCM_1-14">
          <mxGeometry width="50" height="50" relative="1" as="geometry">
            <mxPoint x="460" y="360" as="sourcePoint" />
            <mxPoint x="600" y="370" as="targetPoint" />
            <Array as="points">
              <mxPoint x="1070" y="435" />
            </Array>
          </mxGeometry>
        </mxCell>
        <mxCell id="SQ6MHOEV0jMsdUfmCM_1-24" value="" style="endArrow=classic;html=1;rounded=0;exitX=0;exitY=0.5;exitDx=0;exitDy=0;entryX=1;entryY=0.5;entryDx=0;entryDy=0;" edge="1" parent="1" source="SQ6MHOEV0jMsdUfmCM_1-14" target="SQ6MHOEV0jMsdUfmCM_1-13">
          <mxGeometry width="50" height="50" relative="1" as="geometry">
            <mxPoint x="440" y="360" as="sourcePoint" />
            <mxPoint x="580" y="370" as="targetPoint" />
          </mxGeometry>
        </mxCell>
        <mxCell id="SQ6MHOEV0jMsdUfmCM_1-25" value="" style="endArrow=classic;html=1;rounded=0;exitX=0;exitY=0.5;exitDx=0;exitDy=0;entryX=1;entryY=0.5;entryDx=0;entryDy=0;" edge="1" parent="1" source="SQ6MHOEV0jMsdUfmCM_1-13" target="SQ6MHOEV0jMsdUfmCM_1-12">
          <mxGeometry width="50" height="50" relative="1" as="geometry">
            <mxPoint x="490" y="360" as="sourcePoint" />
            <mxPoint x="630" y="370" as="targetPoint" />
          </mxGeometry>
        </mxCell>
        <mxCell id="SQ6MHOEV0jMsdUfmCM_1-26" value="" style="endArrow=classic;html=1;rounded=0;exitX=0;exitY=0.5;exitDx=0;exitDy=0;entryX=1;entryY=0.5;entryDx=0;entryDy=0;" edge="1" parent="1" source="SQ6MHOEV0jMsdUfmCM_1-12" target="SQ6MHOEV0jMsdUfmCM_1-11">
          <mxGeometry width="50" height="50" relative="1" as="geometry">
            <mxPoint x="430" y="360" as="sourcePoint" />
            <mxPoint x="570" y="370" as="targetPoint" />
          </mxGeometry>
        </mxCell>
        <mxCell id="SQ6MHOEV0jMsdUfmCM_1-27" value="" style="endArrow=classic;html=1;rounded=0;exitX=0;exitY=0.5;exitDx=0;exitDy=0;entryX=1;entryY=0.5;entryDx=0;entryDy=0;" edge="1" parent="1" source="SQ6MHOEV0jMsdUfmCM_1-11" target="SQ6MHOEV0jMsdUfmCM_1-10">
          <mxGeometry width="50" height="50" relative="1" as="geometry">
            <mxPoint x="460" y="360" as="sourcePoint" />
            <mxPoint x="600" y="370" as="targetPoint" />
          </mxGeometry>
        </mxCell>
        <mxCell id="SQ6MHOEV0jMsdUfmCM_1-28" value="" style="endArrow=classic;html=1;rounded=0;entryX=1;entryY=0.5;entryDx=0;entryDy=0;exitX=0;exitY=0.5;exitDx=0;exitDy=0;" edge="1" parent="1" source="SQ6MHOEV0jMsdUfmCM_1-10" target="SQ6MHOEV0jMsdUfmCM_1-9">
          <mxGeometry width="50" height="50" relative="1" as="geometry">
            <mxPoint x="420" y="360" as="sourcePoint" />
            <mxPoint x="560" y="370" as="targetPoint" />
          </mxGeometry>
        </mxCell>
        <mxCell id="SQ6MHOEV0jMsdUfmCM_1-29" value="" style="endArrow=classic;html=1;rounded=0;entryX=0.5;entryY=1;entryDx=0;entryDy=0;exitX=0;exitY=0.5;exitDx=0;exitDy=0;" edge="1" parent="1" source="SQ6MHOEV0jMsdUfmCM_1-9" target="SQ6MHOEV0jMsdUfmCM_1-1">
          <mxGeometry width="50" height="50" relative="1" as="geometry">
            <mxPoint x="390" y="360" as="sourcePoint" />
            <mxPoint x="530" y="370" as="targetPoint" />
            <Array as="points">
              <mxPoint x="110" y="435" />
            </Array>
          </mxGeometry>
        </mxCell>
        <mxCell id="SQ6MHOEV0jMsdUfmCM_1-32" value="&lt;b&gt;&lt;font style=&quot;font-size: 15px;&quot;&gt;Random Key Generation&lt;/font&gt;&lt;/b&gt;" style="rounded=0;whiteSpace=wrap;html=1;" vertex="1" parent="1">
          <mxGeometry x="560" y="307" width="200" height="30" as="geometry" />
        </mxCell>
        <mxCell id="SQ6MHOEV0jMsdUfmCM_1-33" value="" style="endArrow=classic;html=1;rounded=0;exitX=0.5;exitY=0;exitDx=0;exitDy=0;entryX=0.5;entryY=1;entryDx=0;entryDy=0;" edge="1" parent="1" source="SQ6MHOEV0jMsdUfmCM_1-32" target="SQ6MHOEV0jMsdUfmCM_1-5">
          <mxGeometry width="50" height="50" relative="1" as="geometry">
            <mxPoint x="580" y="220" as="sourcePoint" />
            <mxPoint x="600" y="220" as="targetPoint" />
          </mxGeometry>
        </mxCell>
        <mxCell id="SQ6MHOEV0jMsdUfmCM_1-34" value="&lt;b&gt;&lt;font style=&quot;font-size: 14px;&quot;&gt;k&lt;/font&gt;&lt;/b&gt;" style="text;html=1;align=center;verticalAlign=middle;whiteSpace=wrap;rounded=0;" vertex="1" parent="1">
          <mxGeometry x="623" y="283" width="60" height="30" as="geometry" />
        </mxCell>
        <mxCell id="SQ6MHOEV0jMsdUfmCM_1-36" value="&lt;b&gt;&lt;font style=&quot;font-size: 16px;&quot;&gt;k&lt;/font&gt;&lt;/b&gt;" style="text;html=1;align=center;verticalAlign=middle;whiteSpace=wrap;rounded=0;" vertex="1" parent="1">
          <mxGeometry x="700" y="410" width="60" height="30" as="geometry" />
        </mxCell>
        <mxCell id="SQ6MHOEV0jMsdUfmCM_1-37" value="&lt;font style=&quot;font-size: 22px; color: rgb(90, 145, 190);&quot;&gt;&lt;b style=&quot;&quot;&gt;Encryption Pipeline&lt;/b&gt;&lt;/font&gt;" style="text;html=1;align=center;verticalAlign=middle;whiteSpace=wrap;rounded=0;strokeWidth=3;" vertex="1" parent="1">
          <mxGeometry x="440" y="127" width="300" height="30" as="geometry" />
        </mxCell>
        <mxCell id="SQ6MHOEV0jMsdUfmCM_1-38" value="&lt;font style=&quot;font-size: 22px; color: rgb(85, 169, 0);&quot;&gt;&lt;b style=&quot;&quot;&gt;Decryption Pipeline&lt;/b&gt;&lt;/font&gt;" style="text;html=1;align=center;verticalAlign=middle;whiteSpace=wrap;rounded=0;strokeWidth=3;" vertex="1" parent="1">
          <mxGeometry x="440" y="495" width="300" height="30" as="geometry" />
        </mxCell>
      </root>
    </mxGraphModel>
  </diagram>
</mxfile>
